<svg xmlns="http://www.w3.org/2000/svg" viewBox="0 0 166 159" width="166" height="159">
	<style>
		tspan { white-space:pre }
		.shp0 { fill-opacity: 0.902;fill: #bc7d00 } 
	</style>
	<g id="twitter">
		<path id="twitter" class="shp0" d="M164.52 17.31L149.7 32.63C149.7 32.63 149.7 31.24 149.7 35.18C149.7 37.98 149.27 40.65 148.64 43.25C148.29 64.31 141.8 92.25 115.13 114.3C62.68 157.67 6.48 119.4 6.48 119.4C50.93 119.4 50.93 104.09 50.93 104.09C41.05 104.09 21.29 83.67 21.29 83.67C26.23 88.77 36.11 83.67 36.11 83.67C11.41 68.36 11.41 53.04 11.41 53.04C16.35 58.15 26.23 53.04 26.23 53.04C1.54 32.63 16.35 7.1 16.35 7.1C21.29 32.63 85.5 42.83 85.5 42.83L86.32 42.41C85.81 40.08 85.5 35.12 85.5 32.63C85.5 14.3 99.87 2 117.6 2C127.36 2 136 6.6 141.88 13.7L144.77 12.21L159.58 2L149.7 22.42L164.52 17.31Z" />
	</g>
</svg>