<svg xmlns="http://www.w3.org/2000/svg" viewBox="0 0 159 134" width="159" height="134">
	<style>
		tspan { white-space:pre }
		.shp0 { fill-opacity: 0.902;fill: #bc7d00 } 
	</style>
	<g id="twitter">
		<path id="twitter" class="shp0" d="M158.52 16.31L143.7 31.63C143.7 31.63 143.7 30.24 143.7 34.18C143.7 36.98 143.27 39.65 142.64 42.25C142.29 63.31 135.8 91.25 109.13 113.3C56.68 156.67 0.48 118.4 0.48 118.4C44.93 118.4 44.93 103.09 44.93 103.09C35.05 103.09 15.29 82.67 15.29 82.67C20.23 87.77 30.11 82.67 30.11 82.67C5.41 67.36 5.41 52.04 5.41 52.04C10.35 57.15 20.23 52.04 20.23 52.04C-4.46 31.63 10.35 6.1 10.35 6.1C15.29 31.63 79.5 41.83 79.5 41.83L80.32 41.41C79.81 39.08 79.5 34.12 79.5 31.63C79.5 13.3 93.87 1 111.6 1C121.36 1 130 5.6 135.88 12.7L138.77 11.21L153.58 1L143.7 21.42L158.52 16.31Z" />
	</g>
</svg>